<svg width="700" height="700" viewBox="0 0 700 700" fill="none" xmlns="http://www.w3.org/2000/svg">
<path d="M265 350L307.5 46.8911H392.5L435 350L392.5 653.109H307.5L265 350Z" fill="#666666"/>
<path d="M350 265L653.109 307.5V392.5L350 435L46.8911 392.5V307.5L350 265Z" fill="#666666"/>
<path d="M289.896 289.896L534.278 105.618L594.382 165.722L410.104 410.104L165.722 594.382L105.618 534.278L289.896 289.896Z" fill="#666666"/>
<path d="M410.104 289.896L594.382 534.278L534.278 594.382L289.896 410.104L105.618 165.722L165.722 105.618L410.104 289.896Z" fill="#666666"/>
<path d="M350 125L509.099 190.901L575 350L509.099 509.099L350 575L190.901 509.099L125 350L190.901 190.901L350 125Z" fill="#666666"/>
<path d="M350 200L456.066 243.934L500 350L456.066 456.066L350 500L243.934 456.066L200 350L243.934 243.934L350 200Z" fill="#999999"/>
<path d="M350 225L438.388 261.612L475 350L438.388 438.388L350 475L261.612 438.388L225 350L261.612 261.612L350 225Z" fill="#666666"/>
<path d="M350 325L367.678 332.322L375 350L367.678 367.678L350 375L332.322 367.678L325 350L332.322 332.322L350 325Z" fill="#999999"/>
</svg>
