<svg width="642" height="344" viewBox="0 0 642 344" fill="none" xmlns="http://www.w3.org/2000/svg">
<rect x="0.5" y="94.5" width="129" height="47" fill="#1C1C1C" stroke="white"/>
<rect x="217.5" y="198.5" width="169" height="54" fill="#F5F5F5" stroke="#1C1C1C"/>
<rect x="0.5" y="202.5" width="129" height="47" fill="#F5F5F5" stroke="#1C1C1C"/>
<rect x="528.5" y="155.5" width="109" height="39" fill="#F5F5F5" stroke="#666666"/>
<rect x="512.5" y="296.5" width="129" height="47" fill="#F5F5F5" stroke="#666666"/>
<rect x="278.5" y="76.5" width="109" height="39" fill="#F5F5F5" stroke="#666666"/>
<path d="M65 143L59.2265 153H70.7735L65 143ZM65 152H64V203H65H66V152H65Z" fill="white"/>
<path d="M131 227L141 232.774L141 221.226L131 227ZM216 227L216 226L140 226L140 227L140 228L216 228L216 227Z" fill="white"/>
<line x1="528" y1="175.5" x2="458" y2="175.5" stroke="white"/>
<line x1="458" y1="98.5" x2="388" y2="98.5" stroke="white"/>
<path d="M388 226.5L393 229.387L393 223.613L388 226.5ZM458 226.5L458 226L392.5 226L392.5 226.5L392.5 227L458 227L458 226.5Z" fill="white"/>
<path d="M64.9332 320.994L64 251" stroke="white"/>
<line x1="458.5" x2="458.5" y2="227" stroke="white"/>
<path d="M511 320.5L506 317.613V323.387L511 320.5ZM64 320.5V321H506.5V320.5V320H64V320.5Z" fill="white"/>
<path d="M43.9853 125V114.091H45.6046V115.795H45.7466C45.9739 115.213 46.3408 114.761 46.8475 114.439C47.3541 114.112 47.9625 113.949 48.6728 113.949C49.3925 113.949 49.9914 114.112 50.4696 114.439C50.9526 114.761 51.329 115.213 51.5989 115.795H51.7125C51.9919 115.232 52.4109 114.785 52.9696 114.453C53.5284 114.117 54.1983 113.949 54.9796 113.949C55.955 113.949 56.7528 114.254 57.373 114.865C57.9933 115.471 58.3034 116.416 58.3034 117.699V125H56.6273V117.699C56.6273 116.894 56.4071 116.319 55.9668 115.973C55.5265 115.627 55.008 115.455 54.4114 115.455C53.6444 115.455 53.0501 115.687 52.6287 116.151C52.2073 116.61 51.9966 117.192 51.9966 117.898V125H50.2921V117.528C50.2921 116.908 50.0909 116.409 49.6884 116.03C49.2859 115.646 48.7675 115.455 48.133 115.455C47.6974 115.455 47.2902 115.571 46.9114 115.803C46.5373 116.035 46.2343 116.357 46.0023 116.768C45.775 117.176 45.6614 117.647 45.6614 118.182V125H43.9853ZM64.5783 125.256C63.887 125.256 63.2596 125.125 62.6962 124.865C62.1328 124.6 61.6853 124.219 61.3539 123.722C61.0224 123.22 60.8567 122.614 60.8567 121.903C60.8567 121.278 60.9798 120.772 61.226 120.384C61.4722 119.991 61.8013 119.683 62.2132 119.46C62.6252 119.238 63.0797 119.072 63.5769 118.963C64.0788 118.849 64.583 118.759 65.0897 118.693C65.7525 118.608 66.29 118.544 66.7019 118.501C67.1185 118.454 67.4216 118.376 67.611 118.267C67.8051 118.158 67.9022 117.969 67.9022 117.699V117.642C67.9022 116.941 67.7104 116.397 67.3269 116.009C66.9481 115.62 66.3728 115.426 65.601 115.426C64.8008 115.426 64.1735 115.601 63.7189 115.952C63.2644 116.302 62.9448 116.676 62.7601 117.074L61.1692 116.506C61.4533 115.843 61.8321 115.327 62.3056 114.957C62.7838 114.583 63.3046 114.323 63.8681 114.176C64.4363 114.025 64.995 113.949 65.5442 113.949C65.8946 113.949 66.2971 113.991 66.7516 114.077C67.2109 114.157 67.6536 114.325 68.0797 114.581C68.5106 114.837 68.8681 115.223 69.1522 115.739C69.4363 116.255 69.5783 116.946 69.5783 117.812V125H67.9022V123.523H67.8169C67.7033 123.759 67.5139 124.013 67.2488 124.283C66.9836 124.553 66.6309 124.782 66.1905 124.972C65.7502 125.161 65.2128 125.256 64.5783 125.256ZM64.834 123.75C65.4969 123.75 66.0556 123.62 66.5101 123.359C66.9694 123.099 67.315 122.763 67.5471 122.351C67.7838 121.939 67.9022 121.506 67.9022 121.051V119.517C67.8311 119.602 67.6749 119.68 67.4334 119.751C67.1967 119.818 66.9221 119.877 66.6096 119.929C66.3018 119.976 66.0011 120.019 65.7076 120.057C65.4187 120.09 65.1844 120.118 65.0044 120.142C64.5688 120.199 64.1616 120.291 63.7828 120.419C63.4088 120.542 63.1058 120.729 62.8738 120.98C62.6465 121.226 62.5328 121.562 62.5328 121.989C62.5328 122.571 62.7483 123.011 63.1792 123.31C63.6148 123.603 64.1664 123.75 64.834 123.75ZM72.6376 125V114.091H74.3137V125H72.6376ZM73.4899 112.273C73.1632 112.273 72.8815 112.161 72.6447 111.939C72.4127 111.716 72.2967 111.449 72.2967 111.136C72.2967 110.824 72.4127 110.556 72.6447 110.334C72.8815 110.111 73.1632 110 73.4899 110C73.8166 110 74.0959 110.111 74.3279 110.334C74.5647 110.556 74.6831 110.824 74.6831 111.136C74.6831 111.449 74.5647 111.716 74.3279 111.939C74.0959 112.161 73.8166 112.273 73.4899 112.273ZM79.0598 118.438V125H77.3837V114.091H79.003V115.795H79.1451C79.4007 115.241 79.789 114.796 80.3098 114.46C80.8307 114.119 81.503 113.949 82.3269 113.949C83.0655 113.949 83.7118 114.1 84.2658 114.403C84.8198 114.702 85.2507 115.156 85.5584 115.767C85.8662 116.373 86.0201 117.14 86.0201 118.068V125H84.3439V118.182C84.3439 117.325 84.1214 116.657 83.6763 116.179C83.2312 115.696 82.6204 115.455 81.8439 115.455C81.3089 115.455 80.8307 115.571 80.4093 115.803C79.9926 116.035 79.6635 116.373 79.4221 116.818C79.1806 117.263 79.0598 117.803 79.0598 118.438Z" fill="white"/>
<path d="M43.9853 125V114.091H45.6046V115.795H45.7466C45.9739 115.213 46.3408 114.761 46.8475 114.439C47.3541 114.112 47.9625 113.949 48.6728 113.949C49.3925 113.949 49.9914 114.112 50.4696 114.439C50.9526 114.761 51.329 115.213 51.5989 115.795H51.7125C51.9919 115.232 52.4109 114.785 52.9696 114.453C53.5284 114.117 54.1983 113.949 54.9796 113.949C55.955 113.949 56.7528 114.254 57.373 114.865C57.9933 115.471 58.3034 116.416 58.3034 117.699V125H56.6273V117.699C56.6273 116.894 56.4071 116.319 55.9668 115.973C55.5265 115.627 55.008 115.455 54.4114 115.455C53.6444 115.455 53.0501 115.687 52.6287 116.151C52.2073 116.61 51.9966 117.192 51.9966 117.898V125H50.2921V117.528C50.2921 116.908 50.0909 116.409 49.6884 116.03C49.2859 115.646 48.7675 115.455 48.133 115.455C47.6974 115.455 47.2902 115.571 46.9114 115.803C46.5373 116.035 46.2343 116.357 46.0023 116.768C45.775 117.176 45.6614 117.647 45.6614 118.182V125H43.9853ZM64.5783 125.256C63.887 125.256 63.2596 125.125 62.6962 124.865C62.1328 124.6 61.6853 124.219 61.3539 123.722C61.0224 123.22 60.8567 122.614 60.8567 121.903C60.8567 121.278 60.9798 120.772 61.226 120.384C61.4722 119.991 61.8013 119.683 62.2132 119.46C62.6252 119.238 63.0797 119.072 63.5769 118.963C64.0788 118.849 64.583 118.759 65.0897 118.693C65.7525 118.608 66.29 118.544 66.7019 118.501C67.1185 118.454 67.4216 118.376 67.611 118.267C67.8051 118.158 67.9022 117.969 67.9022 117.699V117.642C67.9022 116.941 67.7104 116.397 67.3269 116.009C66.9481 115.62 66.3728 115.426 65.601 115.426C64.8008 115.426 64.1735 115.601 63.7189 115.952C63.2644 116.302 62.9448 116.676 62.7601 117.074L61.1692 116.506C61.4533 115.843 61.8321 115.327 62.3056 114.957C62.7838 114.583 63.3046 114.323 63.8681 114.176C64.4363 114.025 64.995 113.949 65.5442 113.949C65.8946 113.949 66.2971 113.991 66.7516 114.077C67.2109 114.157 67.6536 114.325 68.0797 114.581C68.5106 114.837 68.8681 115.223 69.1522 115.739C69.4363 116.255 69.5783 116.946 69.5783 117.812V125H67.9022V123.523H67.8169C67.7033 123.759 67.5139 124.013 67.2488 124.283C66.9836 124.553 66.6309 124.782 66.1905 124.972C65.7502 125.161 65.2128 125.256 64.5783 125.256ZM64.834 123.75C65.4969 123.75 66.0556 123.62 66.5101 123.359C66.9694 123.099 67.315 122.763 67.5471 122.351C67.7838 121.939 67.9022 121.506 67.9022 121.051V119.517C67.8311 119.602 67.6749 119.68 67.4334 119.751C67.1967 119.818 66.9221 119.877 66.6096 119.929C66.3018 119.976 66.0011 120.019 65.7076 120.057C65.4187 120.09 65.1844 120.118 65.0044 120.142C64.5688 120.199 64.1616 120.291 63.7828 120.419C63.4088 120.542 63.1058 120.729 62.8738 120.98C62.6465 121.226 62.5328 121.562 62.5328 121.989C62.5328 122.571 62.7483 123.011 63.1792 123.31C63.6148 123.603 64.1664 123.75 64.834 123.75ZM72.6376 125V114.091H74.3137V125H72.6376ZM73.4899 112.273C73.1632 112.273 72.8815 112.161 72.6447 111.939C72.4127 111.716 72.2967 111.449 72.2967 111.136C72.2967 110.824 72.4127 110.556 72.6447 110.334C72.8815 110.111 73.1632 110 73.4899 110C73.8166 110 74.0959 110.111 74.3279 110.334C74.5647 110.556 74.6831 110.824 74.6831 111.136C74.6831 111.449 74.5647 111.716 74.3279 111.939C74.0959 112.161 73.8166 112.273 73.4899 112.273ZM79.0598 118.438V125H77.3837V114.091H79.003V115.795H79.1451C79.4007 115.241 79.789 114.796 80.3098 114.46C80.8307 114.119 81.503 113.949 82.3269 113.949C83.0655 113.949 83.7118 114.1 84.2658 114.403C84.8198 114.702 85.2507 115.156 85.5584 115.767C85.8662 116.373 86.0201 117.14 86.0201 118.068V125H84.3439V118.182C84.3439 117.325 84.1214 116.657 83.6763 116.179C83.2312 115.696 82.6204 115.455 81.8439 115.455C81.3089 115.455 80.8307 115.571 80.4093 115.803C79.9926 116.035 79.6635 116.373 79.4221 116.818C79.1806 117.263 79.0598 117.803 79.0598 118.438Z" fill="white"/>
<path d="M33.6632 233.227C32.7541 233.227 31.9515 232.998 31.2555 232.538C30.5595 232.074 30.015 231.421 29.622 230.578C29.229 229.731 29.0325 228.729 29.0325 227.574C29.0325 226.428 29.229 225.434 29.622 224.591C30.015 223.748 30.5618 223.097 31.2626 222.638C31.9634 222.179 32.773 221.949 33.6916 221.949C34.4018 221.949 34.9629 222.067 35.3748 222.304C35.7915 222.536 36.1087 222.801 36.3265 223.099C36.5491 223.393 36.7219 223.634 36.845 223.824H36.987V218.455H38.6632V233H37.0439V231.324H36.845C36.7219 231.523 36.5467 231.774 36.3194 232.077C36.0922 232.375 35.7678 232.643 35.3464 232.879C34.925 233.111 34.3639 233.227 33.6632 233.227ZM33.8904 231.722C34.5628 231.722 35.131 231.546 35.595 231.196C36.059 230.841 36.4118 230.351 36.6532 229.726C36.8947 229.096 37.0154 228.369 37.0154 227.545C37.0154 226.731 36.8971 226.018 36.6603 225.408C36.4236 224.792 36.0732 224.314 35.6092 223.973C35.1452 223.627 34.5723 223.455 33.8904 223.455C33.1802 223.455 32.5884 223.637 32.1149 224.001C31.6461 224.361 31.2934 224.851 31.0566 225.472C30.8246 226.087 30.7086 226.778 30.7086 227.545C30.7086 228.322 30.827 229.027 31.0637 229.662C31.3052 230.292 31.6603 230.794 32.1291 231.168C32.6026 231.537 33.1897 231.722 33.8904 231.722ZM46.5396 233.227C45.4885 233.227 44.5817 232.995 43.8194 232.531C43.0618 232.062 42.4771 231.409 42.0652 230.571C41.658 229.728 41.4544 228.748 41.4544 227.631C41.4544 226.513 41.658 225.528 42.0652 224.676C42.4771 223.819 43.05 223.152 43.7839 222.673C44.5225 222.19 45.3843 221.949 46.3691 221.949C46.9373 221.949 47.4984 222.044 48.0524 222.233C48.6064 222.422 49.1106 222.73 49.5652 223.156C50.0197 223.578 50.3819 224.136 50.6518 224.832C50.9217 225.528 51.0566 226.385 51.0566 227.403V228.114H42.6475V226.665H49.3521C49.3521 226.049 49.229 225.5 48.9828 225.017C48.7413 224.534 48.3957 224.153 47.9458 223.874C47.5008 223.594 46.9752 223.455 46.3691 223.455C45.7015 223.455 45.1239 223.62 44.6362 223.952C44.1532 224.278 43.7815 224.705 43.5211 225.23C43.2607 225.756 43.1305 226.319 43.1305 226.92V227.886C43.1305 228.71 43.2725 229.409 43.5566 229.982C43.8455 230.55 44.2456 230.983 44.7569 231.281C45.2683 231.575 45.8625 231.722 46.5396 231.722C46.9799 231.722 47.3777 231.66 47.7328 231.537C48.0926 231.409 48.4028 231.22 48.6632 230.969C48.9236 230.713 49.1248 230.396 49.2669 230.017L50.8862 230.472C50.7157 231.021 50.4293 231.504 50.0268 231.92C49.6243 232.332 49.1272 232.654 48.5353 232.886C47.9435 233.114 47.2782 233.227 46.5396 233.227ZM62.1948 222.091L58.1607 233H56.4561L52.4221 222.091H54.2402L57.2516 230.784H57.3652L60.3766 222.091H62.1948ZM68.5904 233.227C67.5392 233.227 66.6325 232.995 65.8702 232.531C65.1126 232.062 64.5279 231.409 64.1159 230.571C63.7087 229.728 63.5051 228.748 63.5051 227.631C63.5051 226.513 63.7087 225.528 64.1159 224.676C64.5279 223.819 65.1008 223.152 65.8347 222.673C66.5733 222.19 67.4351 221.949 68.4199 221.949C68.9881 221.949 69.5492 222.044 70.1032 222.233C70.6571 222.422 71.1614 222.73 71.6159 223.156C72.0705 223.578 72.4327 224.136 72.7026 224.832C72.9725 225.528 73.1074 226.385 73.1074 227.403V228.114H64.6983V226.665H71.4029C71.4029 226.049 71.2798 225.5 71.0336 225.017C70.7921 224.534 70.4464 224.153 69.9966 223.874C69.5516 223.594 69.026 223.455 68.4199 223.455C67.7523 223.455 67.1747 223.62 66.687 223.952C66.204 224.278 65.8323 224.705 65.5719 225.23C65.3115 225.756 65.1813 226.319 65.1813 226.92V227.886C65.1813 228.71 65.3233 229.409 65.6074 229.982C65.8962 230.55 66.2963 230.983 66.8077 231.281C67.3191 231.575 67.9133 231.722 68.5904 231.722C69.0307 231.722 69.4284 231.66 69.7836 231.537C70.1434 231.409 70.4535 231.22 70.714 230.969C70.9744 230.713 71.1756 230.396 71.3176 230.017L72.937 230.472C72.7665 231.021 72.4801 231.504 72.0776 231.92C71.6751 232.332 71.178 232.654 70.5861 232.886C69.9943 233.114 69.329 233.227 68.5904 233.227ZM77.3333 218.455V233H75.6571V218.455H77.3333ZM84.835 233.227C83.8502 233.227 82.9861 232.993 82.2427 232.524C81.5041 232.055 80.9264 231.4 80.5098 230.557C80.0978 229.714 79.8919 228.729 79.8919 227.602C79.8919 226.466 80.0978 225.474 80.5098 224.626C80.9264 223.779 81.5041 223.121 82.2427 222.652C82.9861 222.183 83.8502 221.949 84.835 221.949C85.8199 221.949 86.6816 222.183 87.4203 222.652C88.1636 223.121 88.7413 223.779 89.1532 224.626C89.5699 225.474 89.7782 226.466 89.7782 227.602C89.7782 228.729 89.5699 229.714 89.1532 230.557C88.7413 231.4 88.1636 232.055 87.4203 232.524C86.6816 232.993 85.8199 233.227 84.835 233.227ZM84.835 231.722C85.5832 231.722 86.1987 231.53 86.6816 231.146C87.1646 230.763 87.5221 230.259 87.7541 229.634C87.9861 229.009 88.1021 228.331 88.1021 227.602C88.1021 226.873 87.9861 226.194 87.7541 225.564C87.5221 224.934 87.1646 224.425 86.6816 224.037C86.1987 223.649 85.5832 223.455 84.835 223.455C84.0869 223.455 83.4714 223.649 82.9885 224.037C82.5055 224.425 82.148 224.934 81.916 225.564C81.684 226.194 81.568 226.873 81.568 227.602C81.568 228.331 81.684 229.009 81.916 229.634C82.148 230.259 82.5055 230.763 82.9885 231.146C83.4714 231.53 84.0869 231.722 84.835 231.722ZM92.3368 237.091V222.091H93.9561V223.824H94.155C94.2781 223.634 94.4486 223.393 94.6664 223.099C94.8889 222.801 95.2061 222.536 95.6181 222.304C96.0347 222.067 96.5982 221.949 97.3084 221.949C98.227 221.949 99.0366 222.179 99.7374 222.638C100.438 223.097 100.985 223.748 101.378 224.591C101.771 225.434 101.968 226.428 101.968 227.574C101.968 228.729 101.771 229.731 101.378 230.578C100.985 231.421 100.441 232.074 99.7445 232.538C99.0485 232.998 98.2459 233.227 97.3368 233.227C96.6361 233.227 96.075 233.111 95.6536 232.879C95.2322 232.643 94.9078 232.375 94.6806 232.077C94.4533 231.774 94.2781 231.523 94.155 231.324H94.013V237.091H92.3368ZM93.9846 227.545C93.9846 228.369 94.1053 229.096 94.3468 229.726C94.5882 230.351 94.941 230.841 95.405 231.196C95.869 231.546 96.4372 231.722 97.1096 231.722C97.8103 231.722 98.3951 231.537 98.8638 231.168C99.3373 230.794 99.6924 230.292 99.9292 229.662C100.171 229.027 100.291 228.322 100.291 227.545C100.291 226.778 100.173 226.087 99.9363 225.472C99.7042 224.851 99.3515 224.361 98.878 224.001C98.4093 223.637 97.8198 223.455 97.1096 223.455C96.4277 223.455 95.8548 223.627 95.3908 223.973C94.9268 224.314 94.5764 224.792 94.3397 225.408C94.1029 226.018 93.9846 226.731 93.9846 227.545Z" fill="#1C1C1C"/>
<path d="M242.181 223C242.025 222.522 241.819 222.093 241.563 221.714C241.312 221.331 241.012 221.004 240.661 220.734C240.316 220.464 239.923 220.259 239.482 220.116C239.042 219.974 238.559 219.903 238.033 219.903C237.172 219.903 236.388 220.126 235.683 220.571C234.977 221.016 234.416 221.672 233.999 222.538C233.583 223.405 233.374 224.468 233.374 225.727C233.374 226.987 233.585 228.05 234.006 228.916C234.428 229.783 234.998 230.438 235.718 230.884C236.438 231.329 237.247 231.551 238.147 231.551C238.98 231.551 239.714 231.374 240.349 231.018C240.988 230.659 241.485 230.152 241.84 229.499C242.2 228.84 242.38 228.066 242.38 227.176L242.92 227.29H238.545V225.727H244.085V227.29C244.085 228.488 243.829 229.529 243.317 230.415C242.811 231.3 242.11 231.987 241.215 232.474C240.325 232.957 239.302 233.199 238.147 233.199C236.859 233.199 235.728 232.896 234.752 232.29C233.781 231.684 233.024 230.822 232.479 229.705C231.94 228.587 231.67 227.261 231.67 225.727C231.67 224.577 231.824 223.542 232.131 222.624C232.444 221.7 232.884 220.914 233.452 220.266C234.021 219.617 234.693 219.12 235.469 218.774C236.246 218.429 237.101 218.256 238.033 218.256C238.8 218.256 239.515 218.372 240.178 218.604C240.846 218.831 241.44 219.155 241.961 219.577C242.487 219.993 242.924 220.493 243.275 221.075C243.625 221.653 243.867 222.295 243.999 223H242.181ZM247.558 233V222.091H249.234V233H247.558ZM248.41 220.273C248.083 220.273 247.801 220.161 247.565 219.939C247.333 219.716 247.217 219.449 247.217 219.136C247.217 218.824 247.333 218.556 247.565 218.334C247.801 218.111 248.083 218 248.41 218C248.737 218 249.016 218.111 249.248 218.334C249.485 218.556 249.603 218.824 249.603 219.136C249.603 219.449 249.485 219.716 249.248 219.939C249.016 220.161 248.737 220.273 248.41 220.273ZM257.048 222.091V223.511H251.395V222.091H257.048ZM253.042 219.477H254.718V229.875C254.718 230.348 254.787 230.704 254.924 230.94C255.066 231.172 255.246 231.329 255.464 231.409C255.687 231.485 255.921 231.523 256.167 231.523C256.352 231.523 256.503 231.513 256.622 231.494C256.74 231.471 256.835 231.452 256.906 231.438L257.247 232.943C257.133 232.986 256.975 233.028 256.771 233.071C256.567 233.118 256.309 233.142 255.997 233.142C255.523 233.142 255.059 233.04 254.605 232.837C254.155 232.633 253.781 232.323 253.483 231.906C253.189 231.49 253.042 230.964 253.042 230.33V219.477ZM260.031 233V218.455H261.792V224.932H269.548V218.455H271.309V233H269.548V226.494H261.792V233H260.031ZM281.483 228.54V222.091H283.159V233H281.483V231.153H281.37C281.114 231.707 280.716 232.179 280.176 232.567C279.637 232.95 278.955 233.142 278.131 233.142C277.449 233.142 276.843 232.993 276.313 232.695C275.783 232.392 275.366 231.937 275.063 231.331C274.76 230.72 274.608 229.951 274.608 229.023V222.091H276.284V228.909C276.284 229.705 276.507 230.339 276.952 230.812C277.402 231.286 277.975 231.523 278.671 231.523C279.087 231.523 279.511 231.416 279.942 231.203C280.378 230.99 280.742 230.663 281.036 230.223C281.334 229.783 281.483 229.222 281.483 228.54ZM286.457 233V218.455H288.133V223.824H288.275C288.398 223.634 288.568 223.393 288.786 223.099C289.009 222.801 289.326 222.536 289.738 222.304C290.155 222.067 290.718 221.949 291.428 221.949C292.347 221.949 293.156 222.179 293.857 222.638C294.558 223.097 295.105 223.748 295.498 224.591C295.891 225.434 296.087 226.428 296.087 227.574C296.087 228.729 295.891 229.731 295.498 230.578C295.105 231.421 294.56 232.074 293.864 232.538C293.168 232.998 292.366 233.227 291.457 233.227C290.756 233.227 290.195 233.111 289.773 232.879C289.352 232.643 289.028 232.375 288.8 232.077C288.573 231.774 288.398 231.523 288.275 231.324H288.076V233H286.457ZM288.104 227.545C288.104 228.369 288.225 229.096 288.467 229.726C288.708 230.351 289.061 230.841 289.525 231.196C289.989 231.546 290.557 231.722 291.229 231.722C291.93 231.722 292.515 231.537 292.984 231.168C293.457 230.794 293.812 230.292 294.049 229.662C294.29 229.027 294.411 228.322 294.411 227.545C294.411 226.778 294.293 226.087 294.056 225.472C293.824 224.851 293.471 224.361 292.998 224.001C292.529 223.637 291.94 223.455 291.229 223.455C290.548 223.455 289.975 223.627 289.511 223.973C289.047 224.314 288.696 224.792 288.46 225.408C288.223 226.018 288.104 226.731 288.104 227.545ZM305.1 233H303.254L308.594 218.455H310.413L315.754 233H313.907L309.56 220.756H309.447L305.1 233ZM305.782 227.318H313.225V228.881H305.782V227.318ZM322.224 233.227C321.201 233.227 320.32 232.986 319.582 232.503C318.843 232.02 318.275 231.355 317.877 230.507C317.479 229.66 317.281 228.691 317.281 227.602C317.281 226.494 317.484 225.517 317.891 224.669C318.303 223.817 318.876 223.152 319.61 222.673C320.349 222.19 321.21 221.949 322.195 221.949C322.962 221.949 323.654 222.091 324.269 222.375C324.885 222.659 325.389 223.057 325.782 223.568C326.175 224.08 326.419 224.676 326.513 225.358H324.837C324.71 224.861 324.425 224.42 323.985 224.037C323.549 223.649 322.962 223.455 322.224 223.455C321.57 223.455 320.997 223.625 320.505 223.966C320.017 224.302 319.636 224.778 319.362 225.393C319.092 226.004 318.957 226.722 318.957 227.545C318.957 228.388 319.089 229.122 319.354 229.747C319.624 230.372 320.003 230.857 320.491 231.203C320.983 231.549 321.561 231.722 322.224 231.722C322.659 231.722 323.055 231.646 323.41 231.494C323.765 231.343 324.066 231.125 324.312 230.841C324.558 230.557 324.733 230.216 324.837 229.818H326.513C326.419 230.462 326.184 231.042 325.81 231.558C325.441 232.07 324.951 232.477 324.34 232.78C323.734 233.078 323.029 233.227 322.224 233.227ZM333.708 222.091V223.511H328.055V222.091H333.708ZM329.702 219.477H331.379V229.875C331.379 230.348 331.447 230.704 331.585 230.94C331.727 231.172 331.906 231.329 332.124 231.409C332.347 231.485 332.581 231.523 332.827 231.523C333.012 231.523 333.164 231.513 333.282 231.494C333.4 231.471 333.495 231.452 333.566 231.438L333.907 232.943C333.793 232.986 333.635 233.028 333.431 233.071C333.228 233.118 332.969 233.142 332.657 233.142C332.183 233.142 331.719 233.04 331.265 232.837C330.815 232.633 330.441 232.323 330.143 231.906C329.849 231.49 329.702 230.964 329.702 230.33V219.477ZM336.229 233V222.091H337.906V233H336.229ZM337.082 220.273C336.755 220.273 336.473 220.161 336.237 219.939C336.004 219.716 335.888 219.449 335.888 219.136C335.888 218.824 336.004 218.556 336.237 218.334C336.473 218.111 336.755 218 337.082 218C337.408 218 337.688 218.111 337.92 218.334C338.156 218.556 338.275 218.824 338.275 219.136C338.275 219.449 338.156 219.716 337.92 219.939C337.688 220.161 337.408 220.273 337.082 220.273ZM345.407 233.227C344.422 233.227 343.558 232.993 342.815 232.524C342.076 232.055 341.499 231.4 341.082 230.557C340.67 229.714 340.464 228.729 340.464 227.602C340.464 226.466 340.67 225.474 341.082 224.626C341.499 223.779 342.076 223.121 342.815 222.652C343.558 222.183 344.422 221.949 345.407 221.949C346.392 221.949 347.254 222.183 347.993 222.652C348.736 223.121 349.314 223.779 349.725 224.626C350.142 225.474 350.35 226.466 350.35 227.602C350.35 228.729 350.142 229.714 349.725 230.557C349.314 231.4 348.736 232.055 347.993 232.524C347.254 232.993 346.392 233.227 345.407 233.227ZM345.407 231.722C346.155 231.722 346.771 231.53 347.254 231.146C347.737 230.763 348.094 230.259 348.326 229.634C348.558 229.009 348.674 228.331 348.674 227.602C348.674 226.873 348.558 226.194 348.326 225.564C348.094 224.934 347.737 224.425 347.254 224.037C346.771 223.649 346.155 223.455 345.407 223.455C344.659 223.455 344.044 223.649 343.561 224.037C343.078 224.425 342.72 224.934 342.488 225.564C342.256 226.194 342.14 226.873 342.14 227.602C342.14 228.331 342.256 229.009 342.488 229.634C342.72 230.259 343.078 230.763 343.561 231.146C344.044 231.53 344.659 231.722 345.407 231.722ZM354.585 226.438V233H352.909V222.091H354.528V223.795H354.67C354.926 223.241 355.314 222.796 355.835 222.46C356.356 222.119 357.028 221.949 357.852 221.949C358.591 221.949 359.237 222.1 359.791 222.403C360.345 222.702 360.776 223.156 361.084 223.767C361.392 224.373 361.545 225.14 361.545 226.068V233H359.869V226.182C359.869 225.325 359.647 224.657 359.202 224.179C358.757 223.696 358.146 223.455 357.369 223.455C356.834 223.455 356.356 223.571 355.935 223.803C355.518 224.035 355.189 224.373 354.947 224.818C354.706 225.263 354.585 225.803 354.585 226.438ZM372.336 224.534L370.83 224.96C370.735 224.709 370.596 224.465 370.411 224.229C370.231 223.987 369.985 223.788 369.672 223.632C369.36 223.476 368.96 223.398 368.472 223.398C367.804 223.398 367.248 223.552 366.803 223.859C366.363 224.162 366.142 224.548 366.142 225.017C366.142 225.434 366.294 225.763 366.597 226.004C366.9 226.246 367.373 226.447 368.017 226.608L369.637 227.006C370.612 227.242 371.339 227.605 371.817 228.092C372.295 228.575 372.534 229.198 372.534 229.96C372.534 230.585 372.355 231.144 371.995 231.636C371.64 232.129 371.142 232.517 370.503 232.801C369.864 233.085 369.121 233.227 368.273 233.227C367.16 233.227 366.239 232.986 365.51 232.503C364.781 232.02 364.319 231.314 364.125 230.386L365.716 229.989C365.868 230.576 366.154 231.016 366.576 231.31C367.002 231.603 367.558 231.75 368.245 231.75C369.026 231.75 369.646 231.584 370.105 231.253C370.569 230.917 370.801 230.514 370.801 230.045C370.801 229.667 370.669 229.349 370.404 229.094C370.139 228.833 369.731 228.639 369.182 228.511L367.364 228.085C366.365 227.848 365.631 227.482 365.162 226.984C364.698 226.482 364.466 225.855 364.466 225.102C364.466 224.487 364.639 223.942 364.985 223.469C365.335 222.995 365.811 222.624 366.412 222.354C367.018 222.084 367.705 221.949 368.472 221.949C369.551 221.949 370.399 222.186 371.015 222.659C371.635 223.133 372.075 223.758 372.336 224.534Z" fill="#1C1C1C"/>
<path d="M552.305 180V171.273H553.601V172.591H553.692C553.851 172.159 554.139 171.809 554.555 171.54C554.972 171.271 555.442 171.136 555.964 171.136C556.063 171.136 556.186 171.138 556.334 171.142C556.482 171.146 556.593 171.152 556.669 171.159V172.523C556.624 172.511 556.519 172.494 556.357 172.472C556.197 172.445 556.029 172.432 555.851 172.432C555.427 172.432 555.048 172.521 554.714 172.699C554.385 172.873 554.124 173.116 553.93 173.426C553.741 173.733 553.646 174.083 553.646 174.477V180H552.305ZM561.652 180.182C560.811 180.182 560.086 179.996 559.476 179.625C558.87 179.25 558.402 178.727 558.072 178.057C557.747 177.383 557.584 176.598 557.584 175.705C557.584 174.811 557.747 174.023 558.072 173.341C558.402 172.655 558.86 172.121 559.447 171.739C560.038 171.352 560.728 171.159 561.516 171.159C561.97 171.159 562.419 171.235 562.862 171.386C563.305 171.538 563.709 171.784 564.072 172.125C564.436 172.462 564.726 172.909 564.942 173.466C565.158 174.023 565.266 174.708 565.266 175.523V176.091H558.538V174.932H563.902C563.902 174.439 563.804 174 563.607 173.614C563.413 173.227 563.137 172.922 562.777 172.699C562.421 172.475 562 172.364 561.516 172.364C560.982 172.364 560.519 172.496 560.129 172.761C559.743 173.023 559.446 173.364 559.237 173.784C559.029 174.205 558.925 174.655 558.925 175.136V175.909C558.925 176.568 559.038 177.127 559.266 177.585C559.497 178.04 559.817 178.386 560.226 178.625C560.635 178.86 561.11 178.977 561.652 178.977C562.004 178.977 562.322 178.928 562.607 178.83C562.894 178.727 563.143 178.576 563.351 178.375C563.559 178.17 563.72 177.917 563.834 177.614L565.129 177.977C564.993 178.417 564.764 178.803 564.442 179.136C564.12 179.466 563.722 179.723 563.249 179.909C562.775 180.091 562.243 180.182 561.652 180.182ZM571.192 171.273V172.409H566.487V171.273H571.192ZM567.896 180V170.068C567.896 169.568 568.014 169.152 568.249 168.818C568.483 168.485 568.788 168.235 569.163 168.068C569.538 167.902 569.934 167.818 570.351 167.818C570.68 167.818 570.949 167.845 571.158 167.898C571.366 167.951 571.521 168 571.624 168.045L571.237 169.205C571.169 169.182 571.074 169.153 570.953 169.119C570.836 169.085 570.68 169.068 570.487 169.068C570.044 169.068 569.724 169.18 569.527 169.403C569.334 169.627 569.237 169.955 569.237 170.386V180H567.896ZM575.389 180.205C574.836 180.205 574.334 180.1 573.884 179.892C573.433 179.68 573.075 179.375 572.81 178.977C572.545 178.576 572.412 178.091 572.412 177.523C572.412 177.023 572.51 176.617 572.707 176.307C572.904 175.992 573.168 175.746 573.497 175.568C573.827 175.39 574.19 175.258 574.588 175.17C574.99 175.08 575.393 175.008 575.798 174.955C576.329 174.886 576.759 174.835 577.088 174.801C577.421 174.763 577.664 174.701 577.815 174.614C577.971 174.527 578.048 174.375 578.048 174.159V174.114C578.048 173.553 577.895 173.117 577.588 172.807C577.285 172.496 576.825 172.341 576.207 172.341C575.567 172.341 575.065 172.481 574.702 172.761C574.338 173.042 574.082 173.341 573.935 173.659L572.662 173.205C572.889 172.674 573.192 172.261 573.571 171.966C573.954 171.667 574.37 171.458 574.821 171.341C575.276 171.22 575.723 171.159 576.162 171.159C576.442 171.159 576.764 171.193 577.128 171.261C577.495 171.326 577.849 171.46 578.19 171.665C578.535 171.869 578.821 172.178 579.048 172.591C579.276 173.004 579.389 173.557 579.389 174.25V180H578.048V178.818H577.98C577.889 179.008 577.738 179.21 577.526 179.426C577.313 179.642 577.031 179.826 576.679 179.977C576.327 180.129 575.897 180.205 575.389 180.205ZM575.594 179C576.124 179 576.571 178.896 576.935 178.688C577.302 178.479 577.579 178.21 577.764 177.881C577.954 177.551 578.048 177.205 578.048 176.841V175.614C577.991 175.682 577.866 175.744 577.673 175.801C577.484 175.854 577.264 175.902 577.014 175.943C576.768 175.981 576.527 176.015 576.293 176.045C576.062 176.072 575.874 176.095 575.73 176.114C575.382 176.159 575.056 176.233 574.753 176.335C574.454 176.434 574.211 176.583 574.026 176.784C573.844 176.981 573.753 177.25 573.753 177.591C573.753 178.057 573.925 178.409 574.27 178.648C574.618 178.883 575.06 179 575.594 179ZM585.382 180.182C584.564 180.182 583.859 179.989 583.268 179.602C582.678 179.216 582.223 178.684 581.905 178.006C581.587 177.328 581.428 176.553 581.428 175.682C581.428 174.795 581.59 174.013 581.916 173.335C582.246 172.653 582.704 172.121 583.291 171.739C583.882 171.352 584.571 171.159 585.359 171.159C585.973 171.159 586.526 171.273 587.018 171.5C587.511 171.727 587.914 172.045 588.229 172.455C588.543 172.864 588.738 173.341 588.814 173.886H587.473C587.371 173.489 587.143 173.136 586.791 172.83C586.443 172.519 585.973 172.364 585.382 172.364C584.859 172.364 584.401 172.5 584.007 172.773C583.617 173.042 583.312 173.422 583.092 173.915C582.876 174.403 582.768 174.977 582.768 175.636C582.768 176.311 582.875 176.898 583.087 177.398C583.303 177.898 583.606 178.286 583.996 178.562C584.39 178.839 584.852 178.977 585.382 178.977C585.731 178.977 586.047 178.917 586.331 178.795C586.615 178.674 586.856 178.5 587.053 178.273C587.25 178.045 587.39 177.773 587.473 177.455H588.814C588.738 177.97 588.551 178.434 588.251 178.847C587.956 179.256 587.564 179.581 587.075 179.824C586.59 180.062 586.026 180.182 585.382 180.182ZM594.57 171.273V172.409H590.047V171.273H594.57ZM591.365 169.182H592.706V177.5C592.706 177.879 592.761 178.163 592.871 178.352C592.984 178.538 593.128 178.663 593.303 178.727C593.481 178.788 593.668 178.818 593.865 178.818C594.013 178.818 594.134 178.811 594.229 178.795C594.323 178.777 594.399 178.761 594.456 178.75L594.729 179.955C594.638 179.989 594.511 180.023 594.348 180.057C594.185 180.095 593.979 180.114 593.729 180.114C593.35 180.114 592.979 180.032 592.615 179.869C592.255 179.706 591.956 179.458 591.717 179.125C591.482 178.792 591.365 178.371 591.365 177.864V169.182ZM600.038 180.182C599.25 180.182 598.559 179.994 597.964 179.619C597.374 179.244 596.911 178.72 596.578 178.045C596.249 177.371 596.084 176.583 596.084 175.682C596.084 174.773 596.249 173.979 596.578 173.301C596.911 172.623 597.374 172.097 597.964 171.722C598.559 171.347 599.25 171.159 600.038 171.159C600.826 171.159 601.516 171.347 602.107 171.722C602.701 172.097 603.163 172.623 603.493 173.301C603.826 173.979 603.993 174.773 603.993 175.682C603.993 176.583 603.826 177.371 603.493 178.045C603.163 178.72 602.701 179.244 602.107 179.619C601.516 179.994 600.826 180.182 600.038 180.182ZM600.038 178.977C600.637 178.977 601.129 178.824 601.516 178.517C601.902 178.21 602.188 177.807 602.374 177.307C602.559 176.807 602.652 176.265 602.652 175.682C602.652 175.098 602.559 174.555 602.374 174.051C602.188 173.547 601.902 173.14 601.516 172.83C601.129 172.519 600.637 172.364 600.038 172.364C599.44 172.364 598.947 172.519 598.561 172.83C598.175 173.14 597.889 173.547 597.703 174.051C597.518 174.555 597.425 175.098 597.425 175.682C597.425 176.265 597.518 176.807 597.703 177.307C597.889 177.807 598.175 178.21 598.561 178.517C598.947 178.824 599.44 178.977 600.038 178.977ZM606.04 180V171.273H607.335V172.591H607.426C607.585 172.159 607.873 171.809 608.29 171.54C608.706 171.271 609.176 171.136 609.699 171.136C609.797 171.136 609.92 171.138 610.068 171.142C610.216 171.146 610.328 171.152 610.403 171.159V172.523C610.358 172.511 610.254 172.494 610.091 172.472C609.932 172.445 609.763 172.432 609.585 172.432C609.161 172.432 608.782 172.521 608.449 172.699C608.119 172.873 607.858 173.116 607.665 173.426C607.475 173.733 607.381 174.083 607.381 174.477V180H606.04ZM615.56 167.818L611.81 181.75H610.582L614.332 167.818H615.56Z" fill="#666666"/>
<path d="M554.076 327V312.455H555.837V325.438H562.599V327H554.076ZM569.53 327.227C568.546 327.227 567.681 326.993 566.938 326.524C566.199 326.055 565.622 325.4 565.205 324.557C564.793 323.714 564.587 322.729 564.587 321.602C564.587 320.466 564.793 319.474 565.205 318.626C565.622 317.779 566.199 317.121 566.938 316.652C567.681 316.183 568.546 315.949 569.53 315.949C570.515 315.949 571.377 316.183 572.116 316.652C572.859 317.121 573.437 317.779 573.849 318.626C574.265 319.474 574.474 320.466 574.474 321.602C574.474 322.729 574.265 323.714 573.849 324.557C573.437 325.4 572.859 326.055 572.116 326.524C571.377 326.993 570.515 327.227 569.53 327.227ZM569.53 325.722C570.278 325.722 570.894 325.53 571.377 325.146C571.86 324.763 572.217 324.259 572.449 323.634C572.681 323.009 572.797 322.331 572.797 321.602C572.797 320.873 572.681 320.194 572.449 319.564C572.217 318.934 571.86 318.425 571.377 318.037C570.894 317.649 570.278 317.455 569.53 317.455C568.782 317.455 568.167 317.649 567.684 318.037C567.201 318.425 566.843 318.934 566.611 319.564C566.379 320.194 566.263 320.873 566.263 321.602C566.263 322.331 566.379 323.009 566.611 323.634C566.843 324.259 567.201 324.763 567.684 325.146C568.167 325.53 568.782 325.722 569.53 325.722ZM581.464 327.227C580.441 327.227 579.561 326.986 578.822 326.503C578.083 326.02 577.515 325.355 577.117 324.507C576.72 323.66 576.521 322.691 576.521 321.602C576.521 320.494 576.724 319.517 577.132 318.669C577.544 317.817 578.116 317.152 578.85 316.673C579.589 316.19 580.451 315.949 581.436 315.949C582.203 315.949 582.894 316.091 583.509 316.375C584.125 316.659 584.629 317.057 585.022 317.568C585.415 318.08 585.659 318.676 585.754 319.358H584.078C583.95 318.861 583.666 318.42 583.225 318.037C582.79 317.649 582.203 317.455 581.464 317.455C580.811 317.455 580.238 317.625 579.745 317.966C579.258 318.302 578.876 318.778 578.602 319.393C578.332 320.004 578.197 320.722 578.197 321.545C578.197 322.388 578.329 323.122 578.595 323.747C578.865 324.372 579.243 324.857 579.731 325.203C580.223 325.549 580.801 325.722 581.464 325.722C581.9 325.722 582.295 325.646 582.65 325.494C583.005 325.343 583.306 325.125 583.552 324.841C583.798 324.557 583.973 324.216 584.078 323.818H585.754C585.659 324.462 585.425 325.042 585.051 325.558C584.681 326.07 584.191 326.477 583.58 326.78C582.974 327.078 582.269 327.227 581.464 327.227ZM591.414 327.256C590.723 327.256 590.096 327.125 589.532 326.865C588.969 326.6 588.521 326.219 588.19 325.722C587.858 325.22 587.693 324.614 587.693 323.903C587.693 323.278 587.816 322.772 588.062 322.384C588.308 321.991 588.637 321.683 589.049 321.46C589.461 321.238 589.916 321.072 590.413 320.963C590.915 320.849 591.419 320.759 591.926 320.693C592.588 320.608 593.126 320.544 593.538 320.501C593.954 320.454 594.258 320.376 594.447 320.267C594.641 320.158 594.738 319.969 594.738 319.699V319.642C594.738 318.941 594.546 318.397 594.163 318.009C593.784 317.62 593.209 317.426 592.437 317.426C591.637 317.426 591.009 317.601 590.555 317.952C590.1 318.302 589.781 318.676 589.596 319.074L588.005 318.506C588.289 317.843 588.668 317.327 589.142 316.957C589.62 316.583 590.141 316.323 590.704 316.176C591.272 316.025 591.831 315.949 592.38 315.949C592.731 315.949 593.133 315.991 593.588 316.077C594.047 316.157 594.49 316.325 594.916 316.581C595.347 316.837 595.704 317.223 595.988 317.739C596.272 318.255 596.414 318.946 596.414 319.812V327H594.738V325.523H594.653C594.539 325.759 594.35 326.013 594.085 326.283C593.82 326.553 593.467 326.782 593.026 326.972C592.586 327.161 592.049 327.256 591.414 327.256ZM591.67 325.75C592.333 325.75 592.892 325.62 593.346 325.359C593.805 325.099 594.151 324.763 594.383 324.351C594.62 323.939 594.738 323.506 594.738 323.051V321.517C594.667 321.602 594.511 321.68 594.269 321.751C594.033 321.818 593.758 321.877 593.445 321.929C593.138 321.976 592.837 322.019 592.544 322.057C592.255 322.09 592.02 322.118 591.84 322.142C591.405 322.199 590.998 322.291 590.619 322.419C590.245 322.542 589.942 322.729 589.71 322.98C589.482 323.226 589.369 323.562 589.369 323.989C589.369 324.571 589.584 325.011 590.015 325.31C590.451 325.603 591.002 325.75 591.67 325.75ZM601.15 312.455V327H599.474V312.455H601.15Z" fill="#666666"/>
<path d="M308.34 92.2727V93.4091H303.636V92.2727H308.34ZM305.045 101V91.0682C305.045 90.5682 305.162 90.1515 305.397 89.8182C305.632 89.4848 305.937 89.2348 306.312 89.0682C306.687 88.9015 307.083 88.8182 307.499 88.8182C307.829 88.8182 308.098 88.8447 308.306 88.8977C308.514 88.9508 308.67 89 308.772 89.0455L308.386 90.2045C308.317 90.1818 308.223 90.1534 308.102 90.1193C307.984 90.0852 307.829 90.0682 307.636 90.0682C307.192 90.0682 306.872 90.1799 306.675 90.4034C306.482 90.6269 306.386 90.9545 306.386 91.3864V101H305.045ZM313.519 101.182C312.678 101.182 311.953 100.996 311.343 100.625C310.737 100.25 310.269 99.7273 309.94 99.0568C309.614 98.3826 309.451 97.5985 309.451 96.7045C309.451 95.8106 309.614 95.0227 309.94 94.3409C310.269 93.6553 310.728 93.1212 311.315 92.7386C311.906 92.3523 312.595 92.1591 313.383 92.1591C313.837 92.1591 314.286 92.2348 314.729 92.3864C315.173 92.5379 315.576 92.7841 315.94 93.125C316.303 93.4621 316.593 93.9091 316.809 94.4659C317.025 95.0227 317.133 95.7083 317.133 96.5227V97.0909H310.406V95.9318H315.769C315.769 95.4394 315.671 95 315.474 94.6136C315.281 94.2273 315.004 93.9223 314.644 93.6989C314.288 93.4754 313.868 93.3636 313.383 93.3636C312.849 93.3636 312.387 93.4962 311.996 93.7614C311.61 94.0227 311.313 94.3636 311.104 94.7841C310.896 95.2045 310.792 95.6553 310.792 96.1364V96.9091C310.792 97.5682 310.906 98.1269 311.133 98.5852C311.364 99.0398 311.684 99.3864 312.093 99.625C312.502 99.8598 312.978 99.9773 313.519 99.9773C313.871 99.9773 314.19 99.928 314.474 99.8295C314.762 99.7273 315.01 99.5758 315.218 99.375C315.426 99.1705 315.587 98.9167 315.701 98.6136L316.996 98.9773C316.86 99.4167 316.631 99.803 316.309 100.136C315.987 100.466 315.589 100.723 315.116 100.909C314.642 101.091 314.11 101.182 313.519 101.182ZM321.741 101.205C321.188 101.205 320.686 101.1 320.235 100.892C319.784 100.68 319.426 100.375 319.161 99.9773C318.896 99.5758 318.763 99.0909 318.763 98.5227C318.763 98.0227 318.862 97.6174 319.059 97.3068C319.256 96.9924 319.519 96.7462 319.849 96.5682C320.178 96.3902 320.542 96.2576 320.94 96.1705C321.341 96.0795 321.745 96.0076 322.15 95.9545C322.68 95.8864 323.11 95.8352 323.44 95.8011C323.773 95.7633 324.015 95.7008 324.167 95.6136C324.322 95.5265 324.4 95.375 324.4 95.1591V95.1136C324.4 94.553 324.246 94.1174 323.94 93.8068C323.637 93.4962 323.176 93.3409 322.559 93.3409C321.919 93.3409 321.417 93.4811 321.053 93.7614C320.69 94.0417 320.434 94.3409 320.286 94.6591L319.013 94.2045C319.241 93.6742 319.544 93.2614 319.923 92.9659C320.305 92.6667 320.722 92.4583 321.173 92.3409C321.627 92.2197 322.074 92.1591 322.513 92.1591C322.794 92.1591 323.116 92.1932 323.479 92.2614C323.847 92.3258 324.201 92.4602 324.542 92.6648C324.887 92.8693 325.173 93.178 325.4 93.5909C325.627 94.0038 325.741 94.5568 325.741 95.25V101H324.4V99.8182H324.332C324.241 100.008 324.089 100.21 323.877 100.426C323.665 100.642 323.383 100.826 323.031 100.977C322.678 101.129 322.248 101.205 321.741 101.205ZM321.945 100C322.476 100 322.923 99.8958 323.286 99.6875C323.654 99.4792 323.93 99.2102 324.116 98.8807C324.305 98.5511 324.4 98.2045 324.4 97.8409V96.6136C324.343 96.6818 324.218 96.7443 324.025 96.8011C323.835 96.8542 323.616 96.9015 323.366 96.9432C323.12 96.9811 322.879 97.0152 322.644 97.0455C322.413 97.072 322.226 97.0947 322.082 97.1136C321.733 97.1591 321.407 97.233 321.104 97.3352C320.805 97.4337 320.563 97.5833 320.377 97.7841C320.195 97.9811 320.104 98.25 320.104 98.5909C320.104 99.0568 320.277 99.4091 320.621 99.6477C320.97 99.8826 321.411 100 321.945 100ZM331.984 92.2727V93.4091H327.461V92.2727H331.984ZM328.779 90.1818H330.12V98.5C330.12 98.8788 330.175 99.1629 330.285 99.3523C330.398 99.5379 330.542 99.6629 330.717 99.7273C330.895 99.7879 331.082 99.8182 331.279 99.8182C331.427 99.8182 331.548 99.8106 331.643 99.7955C331.737 99.7765 331.813 99.7614 331.87 99.75L332.143 100.955C332.052 100.989 331.925 101.023 331.762 101.057C331.599 101.095 331.393 101.114 331.143 101.114C330.764 101.114 330.393 101.032 330.029 100.869C329.669 100.706 329.37 100.458 329.131 100.125C328.897 99.7917 328.779 99.3712 328.779 98.8636V90.1818ZM339.501 97.4318V92.2727H340.842V101H339.501V99.5227H339.41C339.205 99.9659 338.887 100.343 338.455 100.653C338.023 100.96 337.478 101.114 336.819 101.114C336.273 101.114 335.789 100.994 335.364 100.756C334.94 100.513 334.607 100.15 334.364 99.6648C334.122 99.1761 334.001 98.5606 334.001 97.8182V92.2727H335.342V97.7273C335.342 98.3636 335.52 98.8712 335.876 99.25C336.236 99.6288 336.694 99.8182 337.251 99.8182C337.584 99.8182 337.923 99.733 338.268 99.5625C338.616 99.392 338.908 99.1307 339.143 98.7784C339.381 98.4261 339.501 97.9773 339.501 97.4318ZM343.298 101V92.2727H344.593V93.5909H344.684C344.843 93.1591 345.131 92.8087 345.548 92.5398C345.964 92.2708 346.434 92.1364 346.957 92.1364C347.055 92.1364 347.178 92.1383 347.326 92.142C347.474 92.1458 347.585 92.1515 347.661 92.1591V93.5227C347.616 93.5114 347.512 93.4943 347.349 93.4716C347.19 93.4451 347.021 93.4318 346.843 93.4318C346.419 93.4318 346.04 93.5208 345.707 93.6989C345.377 93.8731 345.116 94.1155 344.923 94.4261C344.733 94.733 344.638 95.0833 344.638 95.4773V101H343.298ZM352.644 101.182C351.803 101.182 351.078 100.996 350.468 100.625C349.862 100.25 349.394 99.7273 349.065 99.0568C348.739 98.3826 348.576 97.5985 348.576 96.7045C348.576 95.8106 348.739 95.0227 349.065 94.3409C349.394 93.6553 349.853 93.1212 350.44 92.7386C351.031 92.3523 351.72 92.1591 352.508 92.1591C352.962 92.1591 353.411 92.2348 353.854 92.3864C354.298 92.5379 354.701 92.7841 355.065 93.125C355.428 93.4621 355.718 93.9091 355.934 94.4659C356.15 95.0227 356.258 95.7083 356.258 96.5227V97.0909H349.531V95.9318H354.894C354.894 95.4394 354.796 95 354.599 94.6136C354.406 94.2273 354.129 93.9223 353.769 93.6989C353.413 93.4754 352.993 93.3636 352.508 93.3636C351.974 93.3636 351.512 93.4962 351.121 93.7614C350.735 94.0227 350.438 94.3636 350.229 94.7841C350.021 95.2045 349.917 95.6553 349.917 96.1364V96.9091C349.917 97.5682 350.031 98.1269 350.258 98.5852C350.489 99.0398 350.809 99.3864 351.218 99.625C351.627 99.8598 352.103 99.9773 352.644 99.9773C352.996 99.9773 353.315 99.928 353.599 99.8295C353.887 99.7273 354.135 99.5758 354.343 99.375C354.551 99.1705 354.712 98.9167 354.826 98.6136L356.121 98.9773C355.985 99.4167 355.756 99.803 355.434 100.136C355.112 100.466 354.714 100.723 354.241 100.909C353.767 101.091 353.235 101.182 352.644 101.182ZM362.411 88.8182L358.661 102.75H357.434L361.184 88.8182H362.411Z" fill="#666666"/>
</svg>
